<?xml version="1.0" standalone="no"?>
<!DOCTYPE svg PUBLIC "-//W3C//DTD SVG 20010904//EN"
 "http://www.w3.org/TR/2001/REC-SVG-20010904/DTD/svg10.dtd">
<svg version="1.0" xmlns="http://www.w3.org/2000/svg"
 width="512.000000pt" height="512.000000pt" viewBox="0 0 512.000000 512.000000"
 preserveAspectRatio="xMidYMid meet">
<metadata>
Created by potrace 1.16, written by Peter Selinger 2001-2019
</metadata>
<g transform="translate(0.000000,512.000000) scale(0.100000,-0.100000)"
fill="#000000" stroke="none">
<path d="M2235 5105 c-469 -64 -885 -237 -1255 -523 -117 -91 -316 -287 -413
-407 -276 -342 -459 -746 -537 -1186 -28 -156 -39 -531 -21 -702 43 -399 182
-790 398 -1122 98 -150 184 -257 318 -394 419 -430 948 -690 1550 -760 134
-16 460 -13 605 4 748 93 1416 512 1833 1150 216 331 355 723 397 1122 18 165
8 535 -19 689 -54 315 -158 607 -307 862 -397 679 -1055 1132 -1829 1258 -138
22 -582 28 -720 9z m725 -195 c973 -173 1739 -916 1934 -1873 41 -199 49 -310
43 -547 -9 -326 -62 -572 -184 -860 -121 -285 -280 -518 -513 -750 -286 -286
-594 -475 -968 -593 -387 -123 -836 -142 -1232 -52 -456 103 -857 328 -1185
666 -344 355 -558 773 -646 1264 -35 192 -35 598 0 790 92 514 325 955 697
1315 375 363 821 580 1352 655 154 22 542 14 702 -15z"/>
<path d="M1323 3580 c-12 -5 -26 -18 -32 -29 -8 -13 -11 -324 -11 -994 0 -945
1 -976 19 -998 l19 -24 1242 0 1242 0 19 24 c18 22 19 53 19 1001 0 948 -1
979 -19 1001 l-19 24 -1229 2 c-696 1 -1237 -2 -1250 -7z m2157 -194 c-40 -39
-914 -786 -920 -786 -6 0 -880 747 -920 786 l-25 24 945 0 945 0 -25 -24z
m-1498 -537 c282 -242 528 -447 546 -455 28 -12 36 -12 65 0 17 8 263 213 545
455 283 243 516 441 518 441 2 0 4 -355 4 -790 l0 -790 -1100 0 -1100 0 0 790
c0 435 2 790 4 790 2 0 235 -198 518 -441z"/>
</g>
</svg>
